<svg width="1200" height="800" viewBox="0 0 1200 800" fill="none" xmlns="http://www.w3.org/2000/svg">
  <rect width="1200" height="800" fill="#F8E6BA"/>
  <rect y="520" width="1200" height="280" fill="#D0A26D"/>
  <ellipse cx="600" cy="420" rx="350" ry="210" fill="#FAF4E6"/>
  <ellipse cx="600" cy="420" rx="300" ry="170" fill="#E8D7A6"/>
  <path d="M360 420C420 310 530 250 635 255C746 261 840 331 856 428C870 513 793 592 674 613C557 634 420 590 369 503C354 478 350 448 360 420Z" fill="#D79A3A"/>
  <path d="M404 426C450 342 535 297 622 301C710 305 785 361 798 435C809 495 760 546 678 565C588 585 484 558 431 504C404 475 392 448 404 426Z" fill="#B8731C"/>
  <path d="M454 431C489 375 555 342 622 345C688 348 744 387 754 438C762 483 726 520 664 535C593 552 512 531 472 491C449 469 442 449 454 431Z" fill="#F4D77D"/>
  <path d="M501 433C527 393 575 369 624 371C674 373 714 401 721 438C726 469 701 496 658 508C608 522 551 507 523 480C507 465 502 449 501 433Z" fill="#FFF2B2"/>
  <circle cx="764" cy="215" r="72" fill="#F6C453" fill-opacity="0.7"/>
  <path d="M223 166C282 140 337 202 318 257C301 307 238 330 194 300C146 266 164 193 223 166Z" fill="#E8B054" fill-opacity="0.4"/>
  <path d="M928 123C983 107 1037 153 1034 206C1030 256 972 292 924 271C872 248 874 139 928 123Z" fill="#E7A83A" fill-opacity="0.32"/>
</svg>
