<svg width="500" height="500" viewBox="0 0 500 500" fill="none" xmlns="http://www.w3.org/2000/svg">
  <rect width="500" height="500" fill="#fffaf3"/>
  <g opacity="0.26" stroke="#92400e" stroke-linecap="round" stroke-linejoin="round">

    <!-- ── GARLIC BULB (top-left, ~110, 104) ── -->
    <g stroke-width="6">
      <path d="M110,62 C86,62 68,80 68,104 C68,132 86,150 110,154 C134,150 152,132 152,104 C152,80 134,62 110,62 Z"/>
      <path d="M76,94 C85,76 135,76 144,94"/>
      <path d="M70,114 C80,97 140,97 150,114"/>
    </g>
    <g stroke-width="4">
      <line x1="110" y1="62" x2="110" y2="46"/>
      <path d="M102,48 C102,41 118,41 118,48"/>
      <line x1="96" y1="154" x2="92" y2="166"/>
      <line x1="110" y1="156" x2="110" y2="168"/>
      <line x1="124" y1="154" x2="128" y2="166"/>
    </g>

    <!-- ── ROLLING PIN (top-right, diagonal ~-25°) ── -->
    <line x1="326" y1="50" x2="458" y2="112" stroke-width="18"/>
    <g stroke-width="6">
      <line x1="306" y1="40" x2="326" y2="50"/>
      <circle cx="298" cy="36" r="11"/>
      <line x1="458" y1="112" x2="476" y2="121"/>
      <circle cx="484" cy="125" r="11"/>
    </g>

    <!-- ── ROSEMARY SPRIG (left, vertical, y 284–408) ── -->
    <g stroke-width="4">
      <path d="M64,284 C66,314 68,344 68,374 C68,390 67,400 66,408"/>
      <line x1="64" y1="296" x2="48" y2="288"/><line x1="65" y1="296" x2="80" y2="288"/>
      <line x1="65" y1="310" x2="49" y2="301"/><line x1="66" y1="310" x2="81" y2="301"/>
      <line x1="66" y1="324" x2="50" y2="315"/><line x1="67" y1="324" x2="82" y2="315"/>
      <line x1="67" y1="338" x2="51" y2="329"/><line x1="68" y1="338" x2="83" y2="329"/>
      <line x1="67" y1="352" x2="51" y2="343"/><line x1="68" y1="352" x2="83" y2="343"/>
      <line x1="68" y1="366" x2="52" y2="357"/><line x1="68" y1="366" x2="83" y2="357"/>
      <line x1="68" y1="380" x2="53" y2="371"/><line x1="68" y1="380" x2="83" y2="371"/>
      <line x1="67" y1="394" x2="54" y2="386"/><line x1="67" y1="394" x2="80" y2="386"/>
    </g>

    <!-- ── TOMATO (center, ~278, 212) ── -->
    <g stroke-width="6">
      <circle cx="278" cy="212" r="44"/>
      <path d="M242,200 C248,182 308,182 314,200"/>
    </g>
    <g stroke-width="4">
      <line x1="278" y1="168" x2="278" y2="152"/>
      <path d="M264,170 C254,158 252,166 260,174"/>
      <path d="M278,167 C270,152 264,154 268,164"/>
      <path d="M292,170 C302,158 304,166 296,174"/>
      <path d="M278,167 C286,152 292,154 288,164"/>
    </g>

    <!-- ── WOODEN SPOON (right-center, angled ~-20°) ── -->
    <g stroke-width="6">
      <ellipse cx="424" cy="274" rx="21" ry="30" transform="rotate(-18 424 274)"/>
      <path d="M437,298 L462,398"/>
    </g>

    <!-- ── WHISK (bottom-left, ~165, 440) ── -->
    <g stroke-width="5">
      <line x1="165" y1="384" x2="165" y2="494"/>
      <path d="M165,400 C147,422 145,452 165,460"/>
      <path d="M165,400 C183,422 185,452 165,460"/>
      <path d="M165,408 C150,428 148,450 165,456"/>
      <path d="M165,408 C180,428 182,450 165,456"/>
      <path d="M150,460 C152,470 178,470 180,460"/>
    </g>

    <!-- ── BAY LEAF (bottom-right, ~360, 430) ── -->
    <g stroke-width="5">
      <path d="M360,390 C340,394 326,412 326,432 C326,454 340,468 360,472 C380,468 394,454 394,432 C394,412 380,394 360,390 Z"/>
      <line x1="360" y1="390" x2="360" y2="376" stroke-width="4"/>
      <line x1="360" y1="392" x2="360" y2="470" stroke-width="3"/>
    </g>
    <g stroke-width="3">
      <line x1="360" y1="405" x2="342" y2="413"/><line x1="360" y1="405" x2="378" y2="413"/>
      <line x1="360" y1="419" x2="338" y2="427"/><line x1="360" y1="419" x2="382" y2="427"/>
      <line x1="360" y1="433" x2="336" y2="441"/><line x1="360" y1="433" x2="384" y2="441"/>
      <line x1="360" y1="447" x2="340" y2="455"/><line x1="360" y1="447" x2="380" y2="455"/>
    </g>

    <!-- ── PEPPERCORNS (bottom-center, ~256, 454) ── -->
    <g fill="#92400e" stroke="none">
      <circle cx="240" cy="456" r="7"/>
      <circle cx="256" cy="447" r="8"/>
      <circle cx="272" cy="456" r="7"/>
      <circle cx="248" cy="469" r="6"/>
      <circle cx="265" cy="468" r="7"/>
    </g>

  </g>
</svg>
